Coordinates
version=1
nRows=23
nColumns=20
inDegrees=yes

Units are S.I. units (second, meters, Newtons, ...)
Angles are in degrees.

endheader
time	pelvis_tilt	pelvis_list	pelvis_rotation	pelvis_tx	pelvis_ty	pelvis_tz	hip_flexion_r	hip_adduction_r	hip_rotation_r	knee_angle_r	ankle_angle_r	hip_flexion_l	hip_adduction_l	hip_rotation_l	knee_angle_l	ankle_angle_l	lumbar_extension	lumbar_bending	lumbar_rotation
      2.73000000	     -0.03795113	     -7.42723733	     10.08379183	      1.48455225	      0.87763791	     -0.26208435	      8.48206470	      4.56533274	    -17.77894349	     -6.36270458	      4.61521961	      3.14483895	     -8.18333370	      8.12404712	    -57.67679212	     -4.43257485	      0.19645450	     13.43080069	     -6.04663508
      2.74000000	     -0.56970959	     -7.31963130	      9.94112970	      1.49626434	      0.87874677	     -0.26080629	      7.65027828	      4.73744523	    -17.74355335	     -5.26779498	      4.68857589	      5.61309390	     -7.70942632	      8.41012032	    -60.10863459	     -2.78214754	      0.70602161	     13.24695657	     -5.90327608
      2.75000000	     -1.03527001	     -7.15441761	      9.75891068	      1.50779366	      0.87973049	     -0.25948249	      6.80237491	      4.85643344	    -17.66733651	     -4.25844389	      4.78124474	      7.97377613	     -7.20123484	      8.55386510	    -62.18012134	     -0.68890886	      1.07554103	     12.99283762	     -5.63233008
      2.76000000	     -1.41649234	     -6.94654873	      9.54979309	      1.51913194	      0.88060410	     -0.25814376	      5.93401622	      4.93283282	    -17.54405591	     -3.35957362	      4.89614448	     10.21016286	     -6.68078243	      8.58108113	    -63.87707524	      1.56815454	      1.28976243	     12.69445184	     -5.25246824
      2.77000000	     -1.60467817	     -6.66892339	      9.32350006	      1.53032642	      0.88152121	     -0.25683031	      4.92540989	      4.95039915	    -17.41521201	     -2.57787533	      5.02784651	     12.17722428	     -6.13709409	      8.50281497	    -65.16040651	      3.79248434	      1.21742858	     12.34313361	     -4.76035339
      2.78000000	     -1.82558969	     -6.41166174	      9.08579334	      1.54139184	      0.88217490	     -0.25552685	      4.01567925	      4.96473829	    -17.24720867	     -1.88797553	      5.20918277	     14.16317727	     -5.63535591	      8.35517399	    -66.08386670	      5.73662891	      1.16795992	     11.99850135	     -4.23750517
      2.79000000	     -2.00479821	     -6.14273188	      8.85182936	      1.55233037	      0.88267893	     -0.25428536	      3.12058368	      4.94871884	    -17.04562747	     -1.29730660	      5.43647041	     16.06892168	     -5.14054377	      8.16407552	    -66.63195139	      7.32427129	      1.04395683	     11.64135362	     -3.68981063
      2.80000000	     -2.12232212	     -5.86839084	      8.61879511	      1.56317979	      0.88306669	     -0.25309482	      2.21138165	      4.91357334	    -16.82657997	     -0.79386989	      5.70284372	     17.86168721	     -4.66762548	      7.92917848	    -66.80791380	      8.56915454	      0.82976234	     11.27955350	     -3.12806307
      2.81000000	     -2.18987780	     -5.59722752	      8.37757873	      1.57394745	      0.88333516	     -0.25194988	      1.29875457	      4.86532331	    -16.57677365	     -0.37648164	      6.00758037	     19.54590348	     -4.22531977	      7.64773759	    -66.62090160	      9.52633520	      0.53964135	     10.92066015	     -2.54565431
      2.82000000	     -2.21066482	     -5.32750345	      8.14504131	      1.58468660	      0.88348614	     -0.25085679	      0.36767782	      4.80595710	    -16.34796735	     -0.01614957	      6.34074927	     21.11591397	     -3.82224828	      7.31020255	    -66.07885951	     10.29185253	      0.19301093	     10.55722872	     -2.00309003
      2.83000000	     -2.19599160	     -5.06859619	      7.90488482	      1.59537593	      0.88351868	     -0.24981647	     -0.56974776	      4.74323272	    -16.10133264	      0.28979947	      6.70077899	     22.57349999	     -3.45695396	      6.92925634	    -65.19484398	     10.92738982	     -0.20404781	     10.20408797	     -1.46145310
      2.84000000	     -2.15309139	     -4.82767064	      7.67166606	      1.60604624	      0.88342955	     -0.24883009	     -1.52027185	      4.68886709	    -15.86129255	      0.56781082	      7.07567191	     23.91854124	     -3.14065047	      6.50589138	    -63.97535688	     11.51067168	     -0.63152172	      9.86042546	     -0.94783024
      2.85000000	     -2.11446298	     -4.61027006	      7.43752842	      1.61672932	      0.88318219	     -0.24787128	     -2.45083237	      4.64772575	    -15.66498084	      0.81831784	      7.46375021	     25.17732981	     -2.89200092	      6.00292869	    -62.43331765	     12.10702730	     -1.04542054	      9.52548955	     -0.50018364
      2.86000000	     -2.07057922	     -4.41873048	      7.18636082	      1.62742866	      0.88280649	     -0.24693014	     -3.38334034	      4.62473560	    -15.46038714	      1.06440947	      7.85417223	     26.32153853	     -2.71124386	      5.43014648	    -60.56387457	     12.70344190	     -1.46203665	      9.20526878	     -0.06594607
      2.87000000	     -2.02665805	     -4.25197381	      6.93298090	      1.63816929	      0.88230462	     -0.24601158	     -4.32794424	      4.62258404	    -15.23796744	      1.33310041	      8.23187939	     27.34978493	     -2.60005030	      4.78003495	    -58.36911141	     13.29121935	     -1.86607166	      8.89237880	      0.32703502
      2.88000000	     -2.02258561	     -4.12104038	      6.64242789	      1.64895220	      0.88163016	     -0.24506757	     -5.22279769	      4.64352237	    -15.03856916	      1.59068406	      8.60444932	     28.30036996	     -2.58031136	      4.02057443	    -55.86516370	     13.82572273	     -2.21757804	      8.59518785	      0.69878487
      2.89000000	     -2.03263395	     -4.01624942	      6.32208606	      1.65981418	      0.88082448	     -0.24411074	     -6.11935272	      4.68129200	    -14.79330210	      1.87198175	      8.94990490	     29.13053939	     -2.63919759	      3.16211980	    -53.04626633	     14.23611951	     -2.54000856	      8.30350035	      1.07463353
      2.90000000	     -2.05623167	     -3.94061352	      5.96653192	      1.67076944	      0.87988228	     -0.24312304	     -7.02244106	      4.73930795	    -14.50243487	      2.18572802	      9.25678808	     29.83870963	     -2.78002912	      2.20068319	    -49.93159456	     14.45747269	     -2.83466027	      8.01757996	      1.43832153
      2.91000000	     -2.07560302	     -3.89015926	      5.57087016	      1.68184874	      0.87881728	     -0.24210998	     -7.95829056	      4.81200399	    -14.15053093	      2.53911759	      9.51800423	     30.40248164	     -2.99729362	      1.12992393	    -46.54679181	     14.45799256	     -3.12166466	      7.73792418	      1.78568471
      2.92000000	     -2.13392656	     -3.86871940	      5.10168453	      1.69306666	      0.87757085	     -0.24104742	     -8.86574527	      4.88942143	    -13.75357500	      2.90337385	      9.76318797	     30.86717542	     -3.28517777	     -0.03664368	    -42.92949638	     14.17737941	     -3.34845521	      7.46001501	      2.21889059
      2.93000000	     -2.13722624	     -3.85555024	      4.59247266	      1.70447518	      0.87625025	     -0.23999599	     -9.86550040	      4.95920945	    -13.28545046	      3.30276465	      9.92697459	     31.13211638	     -3.61133926	     -1.29092579	    -39.12374194	     13.63675540	     -3.62083529	      7.17833865	      2.62796656
      2.94000000	     -2.15986256	     -3.88777766	      3.98898356	      1.71606911	      0.87474131	     -0.23887451	    -10.83341828	      5.03921397	    -12.78062209	      3.65941978	     10.10708663	     31.30953134	     -4.02435793	     -2.65358147	    -35.24677326	     12.86553221	     -3.85208704	      6.91859232	      3.10732318
      2.95000000	     -2.22324141	     -3.94892312	      3.28254751	      1.72788854	      0.87302217	     -0.23773332	    -11.74399639	      5.09963122	    -12.21571186	      3.95539285	     10.33432438	     31.42896811	     -4.48508889	     -4.08717000	    -31.38770979	     11.99516212	     -4.01080182	      6.67192996	      3.67912505
